HIERARCHY
ROOT pelvis
{
  OFFSET 0 100 0
  CHANNELS 6 Xposition Yposition Zposition Zrotation Xrotation Yrotation
  JOINT pelvis_right_femur
  {
    OFFSET -10.78128 -3.44521 -0.5502486
    CHANNELS 3 Zrotation Xrotation Yrotation
    JOINT right_femur_tibia
    {
      OFFSET -0.8047443 -44.0398 -0.1307829
      CHANNELS 3 Zrotation Xrotation Yrotation
      JOINT right_tibia_foot
      {
        OFFSET 3.006224 -47.83518 -5
        CHANNELS 3 Zrotation Xrotation Yrotation
        End Site
        {
          OFFSET 0 -5 15
        }
      }
    }
  }
  JOINT pelvis_left_femur
  {
    OFFSET 10.78128 -3.44521 -0.5502486
    CHANNELS 3 Zrotation Xrotation Yrotation
    JOINT left_femur_tibia
    {
      OFFSET 0.8047443 -44.0398 -0.1307829
      CHANNELS 3 Zrotation Xrotation Yrotation
      JOINT left_tibia_foot
      {
        OFFSET -4.370144 -48.10324 -4.275266
        CHANNELS 3 Zrotation Xrotation Yrotation
        End Site
        {
          OFFSET 0 -5 15
        }
      }
    }
  }
  JOINT pelvis_spine1
  {
    OFFSET 0 6.468898 -3.129235
    CHANNELS 3 Zrotation Xrotation Yrotation
    JOINT spine1
    {
      OFFSET 0 23.15396 4.99043
      CHANNELS 3 Zrotation Xrotation Yrotation
      JOINT spine2
      {
        OFFSET 0 20.79997 -5.064912
        CHANNELS 3 Zrotation Xrotation Yrotation
        JOINT neck
        {
          OFFSET 0 14.38658 9.616178
          CHANNELS 3 Zrotation Xrotation Yrotation
          End Site
          {
            OFFSET 0 20 0
          }
        }
      }
      JOINT right_manubrium
      {
        OFFSET -5.722621 16.35077 3.967754
        CHANNELS 3 Zrotation Xrotation Yrotation
        JOINT right_clavicle
        {
          OFFSET -13.16364 1.694482 -4.693211
          CHANNELS 3 Zrotation Xrotation Yrotation
          JOINT right_humerus
          {
            OFFSET -28.5034 -0.3100689 -2.792744
            CHANNELS 3 Zrotation Xrotation Yrotation
            JOINT right_radius
            {
              OFFSET -25.15693 0.02248979 -1.271978
              CHANNELS 3 Zrotation Xrotation Yrotation
              End Site
              {
                OFFSET -15 0 0
              }
            }
          }
        }
      }
      JOINT left_manubrium
      {
        OFFSET 5.722621 16.35077 3.967754
        CHANNELS 3 Zrotation Xrotation Yrotation
        JOINT left_clavicle
        {
          OFFSET 13.16364 1.694482 -4.693211
          CHANNELS 3 Zrotation Xrotation Yrotation
          JOINT left_humerus
          {
            OFFSET 29.39168 -1.063119 -2.237045
            CHANNELS 3 Zrotation Xrotation Yrotation
            JOINT left_radius
            {
              OFFSET 24.59957 -0.9528479 0.9047498
              CHANNELS 3 Zrotation Xrotation Yrotation
              End Site
              {
                OFFSET 15 -0 -0
              }
            }
          }
        }
      }
    }
  }
}
MOTION
Frames: 19
Frame Time: 0.0416666666667
0 103.5113 0 1.565076 -3.229934 0.2722857 1.510174 -10.34579 7.304718 -0 39.67771 -0 -5.525829 -17.29082 -4.68002 -6.767793 13.23778 -23.77748 -0 5.487385 -0 0.3059659 -19.66529 23.29753 -2.735034 -3.016457 4.078805 0.09290737 8.083044 -7.575916 1.610579 22.27392 8.022081 5.597155 -21.70727 8.531732 6.834153 -19.41992 10.46508 88.44674 36.02369 -23.64916 -0 0 17.82182 -6.099124 7.326722 2.306317 7.041752 -20.73737 -3.974056 -100.0329 43.47684 27.40609 0 0 -26.13414 -11.01924 17.52701 28.72886
0.07805609 103.5851 1.340419 0.558967 -2.529275 0.3182723 3.025654 -13.51574 8.496358 -0 41.65573 -0 -6.096145 -16.56008 -5.362367 -5.891766 13.51099 -24.171 -0 5.659209 -0 -1.045922 -21.04789 23.32733 -2.403709 -2.815911 4.124686 0.06749226 8.106337 -7.603227 1.611512 22.17269 8.065748 5.61538 -21.74843 8.536638 6.722642 -19.22995 10.42823 88.65395 36.11599 -23.80725 -0 0 17.47397 -6.293245 7.64155 2.29952 7.129418 -20.95083 -3.799144 -99.69309 43.10953 27.11345 0 0 -26.31429 -10.51499 17.56111 28.39975
0.3231023 102.7796 4.025092 0.3171999 -1.328771 0.2719952 2.844573 -25.47273 1.750591 -0 26.1801 -0 -7.297566 -6.926994 -1.094855 -6.121843 13.75607 -18.23253 -0 5.702491 -0 4.767015 -20.60402 20.54615 -3.7855 -0.5238827 4.933774 1.275014 7.72038 -6.151009 0.7098106 23.80501 6.872385 4.044126 -22.36356 6.834936 5.529996 -18.81538 11.52935 84.08489 39.06311 -15.74045 -0 0 14.24588 -15.60833 10.27465 9.480208 4.237859 -19.24512 -2.961222 -92.67692 34.54487 21.71792 0 0 -21.65469 -3.212265 13.98801 19.52355
0.5811017 102.0765 6.580524 -0.2403297 0.7505945 0.2169874 4.874642 -28.25531 5.279583 -0 26.82891 -0 -6.131247 -8.314136 -2.175945 -6.052215 13.00377 -19.5634 -0 5.722566 -0 6.149748 -21.23518 22.56001 -4.396066 -0.4748263 4.891559 1.584641 7.757658 -6.091199 0.5665537 23.95673 6.688608 3.843472 -22.41425 6.527231 5.679371 -18.84034 11.77277 83.04977 38.75641 -14.39451 -0 0 14.18913 -16.22428 9.90452 10.42448 3.711489 -18.75941 -3.100614 -91.87502 33.41155 20.97527 0 0 -20.61824 -2.758903 13.24548 18.39025
0.849198 101.1744 9.693858 -0.280724 1.990015 0.2840128 5.454529 -31.93818 4.643946 -0 21.43279 -0 -5.661862 -5.871503 -1.494328 -6.38094 13.2752 -18.09803 -0 6.49989 -0 8.54318 -21.31284 22.60824 -4.801339 -0.5106102 4.439188 1.836523 7.557918 -6.292015 0.591049 24.16569 6.533645 3.739449 -22.50386 6.421603 5.53626 -18.86517 11.77451 83.41158 38.2187 -14.7962 -0 0 14.07936 -15.83513 9.311126 10.27527 3.35947 -18.41716 -3.427302 -91.82718 34.24538 20.75198 0 0 -20.43235 -4.142843 13.51268 19.56912
1.121397 100.2822 13.16339 -0.6923614 3.229693 0.5119265 6.608601 -34.39702 5.479149 -0 18.92322 -0 -5.127044 -4.650119 -1.675189 -6.27868 13.41384 -17.8141 -0 7.496442 -0 8.147455 -22.21611 22.32837 -4.922744 -0.3903361 4.268794 1.968886 7.523262 -6.358787 0.5952904 24.24004 6.408808 3.622136 -22.48131 6.285877 5.329869 -18.82593 11.80036 83.46496 37.83341 -14.68579 -0 0 13.89309 -16.24804 9.253513 10.53373 3.036536 -18.19893 -3.585475 -91.50345 34.10122 20.51744 0 0 -20.09412 -4.665368 13.4133 19.97892
1.363167 99.38425 17.22791 -0.9856903 4.004453 0.9289529 7.123517 -36.06594 5.105535 -0 15.45904 -0 -4.815125 -2.704645 -1.691491 -6.084238 14.27404 -16.76022 -0 9.195834 -0 6.503856 -22.80479 20.60467 -4.961946 -0.2195866 4.10322 2.093479 7.530588 -6.432796 0.6104078 24.29841 6.268219 3.480559 -22.42097 6.139767 5.061258 -18.74342 11.81456 83.59364 37.39522 -14.61987 -0 0 13.60517 -16.80623 9.306238 10.81819 2.676401 -17.99986 -3.767437 -91.09953 33.82721 20.25435 0 0 -19.75388 -5.172067 13.2804 20.42464
1.561562 98.55661 21.90495 -1.328711 4.440755 1.512835 7.410902 -36.52994 4.678578 -0 12.93659 -0 -4.676861 -1.205506 -1.956888 -5.613564 15.31272 -15.77831 -0 11.62801 -0 3.169056 -22.93065 17.83609 -4.913698 -0.05473305 4.098507 2.123626 7.62727 -6.439048 0.6261089 24.29189 6.16633 3.379312 -22.2934 6.013054 4.865421 -18.67018 11.83025 83.5594 37.12402 -14.36793 -0 0 13.39309 -17.52089 9.555503 11.16482 2.436574 -17.91694 -3.847886 -90.6948 33.27449 20.03378 0 0 -19.46261 -5.230807 13.07818 20.49438
1.701865 97.87211 27.2727 -1.671032 4.425854 2.164838 7.508037 -35.64485 4.205875 -0 11.51131 -0 -4.644699 -0.06981646 -2.439454 -4.921716 16.4096 -14.53197 -0 15.49792 -0 -0.9684828 -21.7291 14.43271 -4.838616 0.08190177 4.190242 2.088818 7.76981 -6.401067 0.6471928 24.24962 6.091053 3.311334 -22.12013 5.906908 4.726564 -18.62802 11.84561 83.41713 36.9505 -14.00266 -0 0 13.28869 -18.29951 9.900964 11.53051 2.282366 -17.89467 -3.868199 -90.34528 32.62785 19.88484 0 0 -19.19744 -5.086858 12.86352 20.40149
1.783984 97.43538 33.29914 -2.020646 3.884219 2.713612 7.625581 -33.25561 4.073502 -0 11.7939 -0 -4.686025 0.3384881 -3.166963 -4.062633 16.95754 -13.14061 -0 21.40027 -0 -5.078247 -18.8811 11.30346 -4.753822 0.1588727 4.429264 1.953277 7.942347 -6.282343 0.6710577 24.16428 6.065343 3.305016 -21.90506 5.839474 4.674044 -18.67012 11.86374 83.07944 36.9554 -13.42609 -0 0 13.42088 -19.1414 10.33775 11.92668 2.267757 -17.94004 -3.778142 -90.14052 31.92476 19.90774 0 0 -18.95638 -4.68428 12.64631 20.08714
1.821711 97.38727 39.80791 -2.338605 2.737298 2.938752 7.847123 -29.22414 4.339395 -0 13.77229 -0 -4.856057 -0.2816424 -3.953864 -3.206426 16.12405 -11.68755 -0 29.97223 -0 -8.207937 -14.49216 9.3978 -4.654754 0.1726865 4.796101 1.724786 8.110386 -6.08391 0.6973343 24.04636 6.0925 3.355087 -21.67636 5.825156 4.679054 -18.81167 11.87933 82.57972 37.13336 -12.67253 -0 0 13.80725 -20.01463 10.83519 12.33171 2.383012 -18.02715 -3.580793 -90.13218 31.25299 20.16728 0 0 -18.73261 -4.1153 12.4518 19.63635
1.839105 97.85211 46.41838 -2.469468 0.9859671 2.677335 7.958768 -23.59466 4.583021 -0 16.43435 -0 -5.390486 -2.226274 -4.414227 -2.640659 12.97762 -10.40189 -0 40.84437 -0 -9.707098 -9.594579 9.225308 -4.500962 0.1292491 5.260567 1.423485 8.236031 -5.81984 0.7193987 23.89847 6.186283 3.454427 -21.48538 5.889501 4.719894 -19.03523 11.88327 81.98604 37.4969 -11.84532 -0 0 14.40003 -20.82933 11.37272 12.69366 2.632463 -18.15182 -3.273948 -90.36027 30.68674 20.70007 0 0 -18.56693 -3.411999 12.30305 19.08065
1.866261 98.82194 52.69906 -2.143868 -1.094904 2.007449 7.588038 -16.84064 4.231095 -0 17.68208 -0 -6.254985 -5.226447 -4.270891 -2.630554 7.238186 -9.492092 -0 51.7744 -0 -9.559306 -5.92635 10.39205 -4.222245 0.0650123 5.72088 1.114661 8.282785 -5.556792 0.7286472 23.72923 6.351994 3.579357 -21.40468 6.052452 4.765563 -19.24492 11.85943 81.50792 38.00742 -11.24795 -0 0 14.97925 -21.39309 11.91736 12.89385 2.994612 -18.32947 -2.899755 -90.78997 30.32304 21.41225 0 0 -18.57368 -2.650639 12.23818 18.50583
1.928779 100.0786 58.55398 -1.249373 -2.985705 1.233591 6.635908 -10.07137 3.626565 -0 16.24236 -0 -6.308201 -7.827734 -3.839867 -2.978837 0.2865389 -8.781602 -0 59.35395 -0 -8.678061 -4.565303 11.857 -3.767162 0.03065653 6.041031 0.8834911 8.247045 -5.391685 0.7185205 23.54721 6.58172 3.708315 -21.48535 6.307541 4.814367 -19.29537 11.79832 81.40987 38.57284 -11.26254 -0 0 15.24109 -21.45659 12.41194 12.79009 3.429917 -18.59851 -2.536605 -91.30171 30.23011 22.0684 0 0 -18.89581 -1.910088 12.28398 18.00165
2.015218 101.3193 64.30012 -0.1915905 -4.567669 0.4900087 5.528652 -4.530795 3.927675 -0 14.10104 -0 -4.344975 -8.66962 -3.773172 -3.001108 -5.499889 -7.690036 -0 62.22247 -0 -8.091927 -4.581911 13.32212 -3.160872 0.04807783 6.160566 0.7698511 8.178779 -5.371819 0.6916315 23.35257 6.850412 3.832713 -21.70008 6.614605 4.898848 -19.11283 11.71105 81.77382 39.06978 -11.99597 -0 0 15.05942 -20.92673 12.79806 12.34976 3.88636 -18.97132 -2.25638 -91.76507 30.35231 22.47051 0 0 -19.54364 -1.224561 12.40727 17.59023
2.073892 102.2713 70.12484 0.5458117 -6.168229 -0.2939112 4.751414 -0.2254431 4.913293 -0 13.43654 -0 -1.767328 -8.844195 -4.218007 -2.50567 -9.448713 -6.343252 -0 60.91793 -0 -7.747325 -5.007866 15.32806 -2.5067 0.09586056 6.1269 0.7526924 8.137514 -5.462418 0.656133 23.15211 7.121307 3.946939 -21.96848 6.920984 5.041081 -18.75712 11.62139 82.42812 39.41394 -13.17439 -0 0 14.56673 -19.96396 13.04146 11.69441 4.305339 -19.39596 -2.090575 -92.1143 30.54914 22.59786 0 0 -20.356 -0.5988809 12.53267 17.23225
2.095312 102.7202 75.89816 0.8713932 -7.398753 -1.108107 4.342239 3.819194 5.357229 -0 13.44634 -0 -0.7363385 -10.15758 -4.469931 -1.711319 -13.23741 -5.364804 -0 55.50656 -0 -7.341997 -5.816452 17.4805 -1.914902 0.143206 6.028401 0.7888255 8.147484 -5.593727 0.6169423 22.96536 7.36206 4.041732 -22.22292 7.187446 5.227129 -18.34685 11.54913 83.12304 39.6072 -14.40923 -0 0 13.97577 -18.85359 13.15155 11.00619 4.642324 -19.79494 -2.028137 -92.34286 30.69643 22.54426 0 0 -21.1371 -0.02381895 12.59567 16.8711
2.142403 102.5213 81.52478 0.8144322 -7.569947 -1.897507 4.190289 7.900522 4.944131 -0 12.99371 -0 -1.184985 -12.77022 -3.977487 -0.5527059 -18.00832 -4.614581 -0 46.06918 -0 -6.85054 -6.602121 19.05019 -1.414023 0.1830808 5.932861 0.8448088 8.204897 -5.713795 0.5724829 22.79927 7.565832 4.110292 -22.44111 7.407292 5.426954 -17.95391 11.5015 83.71392 39.7035 -15.47696 -0 0 13.40471 -17.81656 13.18849 10.41062 4.889822 -20.12974 -2.033165 -92.46994 30.70715 22.409 0 0 -21.78556 0.5494504 12.55545 16.44141
2.30222 101.6944 87.1453 0.4501185 -6.658213 -2.62961 4.149528 11.61318 4.173617 -0 12.1959 -0 -1.687214 -15.61283 -2.909596 0.9185539 -22.92927 -3.701101 -0 34.24757 -0 -6.322217 -6.893638 19.80797 -1.007585 0.217808 5.860504 0.9026269 8.287559 -5.806286 0.5267836 22.66124 7.729571 4.152763 -22.61942 7.581922 5.605716 -17.6138 11.47354 84.17747 39.74695 -16.32308 -0 0 12.90139 -16.95752 13.19599 9.945623 5.057648 -20.39133 -2.074534 -92.52358 30.60339 22.25235 0 0 -22.28338 1.0979 12.43909 15.97877
